<svg width="24" height="24" viewBox="0 0 24 24" fill="none" xmlns="http://www.w3.org/2000/svg">
<path d="M13.7188 2C13 1.99987 12.3084 2.27499 11.7862 2.76885C11.2639 3.26271 10.9506 3.93781 10.9106 4.65548C10.8706 5.37314 11.107 6.07888 11.5711 6.62772C12.0352 7.17656 12.6919 7.52683 13.4063 7.60658V8.66025C13.2425 8.75195 13.104 8.8829 13.0033 9.04134C12.9027 9.19978 12.8429 9.38074 12.8295 9.56798C12.8289 9.57492 12.8284 9.58186 12.8283 9.58888L12.7575 12.3433L9.81664 12.3125C9.55465 12.3123 9.29696 12.3791 9.06804 12.5065C9.08393 12.6326 9.08684 12.7601 9.07675 12.8868C9.06935 13.0441 9.06237 13.1926 9.05555 13.3372C9.14055 13.2147 9.25378 13.1144 9.38569 13.0448C9.5176 12.9752 9.66431 12.9384 9.81344 12.9375L13.0587 12.9715C13.0995 12.9727 13.1402 12.9657 13.1782 12.951C13.2163 12.9363 13.2511 12.9141 13.2805 12.8857C13.3099 12.8574 13.3333 12.8234 13.3494 12.7859C13.3655 12.7483 13.3739 12.708 13.3742 12.6671L13.4527 9.6165C13.4791 9.37434 13.6457 9.17285 13.8131 9.18811C13.8451 9.19191 13.876 9.20203 13.904 9.21787C13.9321 9.23372 13.9567 9.25498 13.9765 9.28042C14.0618 9.39484 14.0987 9.5382 14.0793 9.6796L13.9003 13.4888C13.8946 13.5584 13.8669 13.6245 13.8213 13.6774C13.7756 13.7303 13.7143 13.7673 13.6463 13.7831L12.8751 13.9402C12.8045 13.9545 12.741 13.9929 12.6954 14.0487C12.6499 14.1045 12.625 14.1743 12.625 14.2464V17.7812H10.073V16.2188C10.073 16.1359 10.0401 16.0564 9.98146 15.9978C9.92286 15.9392 9.84337 15.9062 9.76049 15.9062C9.67761 15.9062 9.59813 15.9392 9.53952 15.9978C9.48092 16.0564 9.44799 16.1359 9.44799 16.2188V17.7812H8.87502V16.8692C8.81803 17.1758 8.67212 17.4589 8.45545 17.6832C8.23878 17.9076 7.96092 18.0632 7.65646 18.1308L7.62503 18.1372V18.4062H13.0938V17.0296C13.094 16.7498 13.147 16.4725 13.25 16.2123V14.5017L13.7746 14.3949C13.9992 14.3448 14.1978 14.2147 14.3333 14.0288C14.2374 13.7803 14.188 13.5163 14.1875 13.25V12.625C14.1877 12.1517 14.3423 11.6915 14.6279 11.3141L14.7027 9.72316C14.7189 9.57283 14.7053 9.42077 14.6627 9.27568C14.6201 9.1306 14.5493 8.99535 14.4544 8.87767C14.344 8.74443 14.1969 8.64668 14.0313 8.59662V7.60658C14.7456 7.52683 15.4023 7.17656 15.8664 6.62772C16.3306 6.07888 16.5669 5.37314 16.5269 4.65548C16.4869 3.93781 16.1736 3.26271 15.6513 2.76885C15.1291 2.27499 14.4375 1.99987 13.7188 2ZM13.7188 7C13.2861 7 12.8632 6.87171 12.5035 6.63134C12.1437 6.39097 11.8633 6.04933 11.6978 5.64962C11.5322 5.24991 11.4889 4.81007 11.5733 4.38574C11.6577 3.96141 11.866 3.57163 12.172 3.2657C12.4779 2.95978 12.8677 2.75144 13.292 2.66703C13.7163 2.58263 14.1562 2.62595 14.5559 2.79151C14.9556 2.95708 15.2972 3.23746 15.5376 3.59719C15.778 3.95692 15.9063 4.37985 15.9063 4.8125C15.9056 5.39246 15.6749 5.94848 15.2648 6.35858C14.8547 6.76867 14.2987 6.99935 13.7188 7Z" fill="black"/>
<path d="M13.7825 4.44186C13.5172 4.37068 13.3883 4.32605 13.3542 4.22595C13.3274 4.1463 13.4462 4.07802 13.4899 4.06055C13.5753 4.03003 13.6665 4.01913 13.7567 4.02868C13.8469 4.03823 13.9338 4.06797 14.011 4.1157C14.046 4.13729 14.085 4.15173 14.1256 4.15822C14.1663 4.1647 14.2078 4.16309 14.2478 4.15349C14.2878 4.14388 14.3255 4.12646 14.3588 4.10223C14.3921 4.078 14.4202 4.04744 14.4416 4.0123C14.4631 3.97717 14.4773 3.93814 14.4836 3.89747C14.4899 3.8568 14.4881 3.81529 14.4783 3.77532C14.4686 3.73534 14.451 3.6977 14.4266 3.66454C14.4022 3.63139 14.3715 3.60337 14.3363 3.58211C14.2718 3.54362 14.2039 3.51112 14.1335 3.48502V3.33522C14.1335 3.25234 14.1006 3.17285 14.042 3.11425C13.9834 3.05564 13.9039 3.02272 13.821 3.02272C13.7381 3.02272 13.6586 3.05564 13.6 3.11425C13.5414 3.17285 13.5085 3.25234 13.5085 3.33522V3.41381C13.4222 3.42617 13.3376 3.44862 13.2566 3.48071C12.8418 3.64765 12.6339 4.04498 12.7622 4.42645C12.9081 4.85431 13.3199 4.96486 13.6205 5.0455C13.8123 5.09692 13.9934 5.14552 14.0569 5.2441C14.0755 5.27012 14.0862 5.30099 14.0876 5.33296C14.089 5.36494 14.081 5.39662 14.0647 5.42415C13.9872 5.53615 13.7665 5.56277 13.5901 5.53172C13.5223 5.5183 13.4585 5.48946 13.4037 5.44742C13.3375 5.39756 13.2542 5.37605 13.1721 5.38761C13.09 5.39917 13.0159 5.44286 12.9661 5.50906C12.9162 5.57527 12.8947 5.65857 12.9062 5.74064C12.9178 5.82271 12.9615 5.89683 13.0277 5.94669C13.1437 6.03389 13.2762 6.09679 13.4171 6.13163V6.28978C13.4171 6.37266 13.45 6.45215 13.5086 6.51075C13.5672 6.56936 13.6467 6.60228 13.7296 6.60228C13.8125 6.60228 13.892 6.56936 13.9506 6.51075C14.0092 6.45215 14.0421 6.37266 14.0421 6.28978V6.12918C14.2577 6.083 14.4487 5.95877 14.5783 5.78037C14.6656 5.65147 14.7126 5.49953 14.7134 5.34385C14.7142 5.18817 14.6686 5.03578 14.5826 4.90604C14.3886 4.60445 14.0525 4.51427 13.7825 4.44186Z" fill="black"/>
<path d="M10.9063 11.0625C10.7471 11.0623 10.5906 11.0216 10.4515 10.9441C10.3125 10.8667 10.1954 10.7551 10.1115 10.6199C9.96651 10.772 9.80799 10.9106 9.63791 11.034C9.83021 11.3031 10.1031 11.5043 10.4171 11.6083C10.7312 11.7123 11.0701 11.7139 11.3851 11.6128C11.7001 11.5116 11.9748 11.313 12.1696 11.0456C12.3644 10.7782 12.4691 10.4558 12.4688 10.125V9.5C12.4682 9.11041 12.3223 8.73504 12.0596 8.44737C11.7968 8.15971 11.4362 7.98045 11.0482 7.94469C11.0571 8.04537 11.0625 8.14703 11.0625 8.25C11.0625 8.35937 11.0568 8.46741 11.0468 8.5742C11.2683 8.60791 11.4704 8.71978 11.6166 8.8896C11.7628 9.05941 11.8434 9.27593 11.8438 9.5V10.125C11.8435 10.3736 11.7446 10.6119 11.5689 10.7876C11.3931 10.9634 11.1548 11.0622 10.9063 11.0625Z" fill="black"/>
<path d="M14.8125 12.625V13.25C14.8125 13.6644 14.9771 14.0618 15.2702 14.3549C15.5632 14.6479 15.9606 14.8125 16.375 14.8125C16.7894 14.8125 17.1868 14.6479 17.4799 14.3549C17.7729 14.0618 17.9375 13.6644 17.9375 13.25V12.625C17.9375 12.2106 17.7729 11.8132 17.4799 11.5201C17.1868 11.2271 16.7894 11.0625 16.375 11.0625C15.9606 11.0625 15.5632 11.2271 15.2702 11.5201C14.9771 11.8132 14.8125 12.2106 14.8125 12.625ZM15.4375 12.625C15.4375 12.3764 15.5363 12.1379 15.7121 11.9621C15.8879 11.7863 16.1264 11.6875 16.375 11.6875C16.6236 11.6875 16.8621 11.7863 17.0379 11.9621C17.2137 12.1379 17.3125 12.3764 17.3125 12.625V13.25C17.3125 13.4986 17.2137 13.7371 17.0379 13.9129C16.8621 14.0887 16.6236 14.1875 16.375 14.1875C16.1264 14.1875 15.8879 14.0887 15.7121 13.9129C15.5363 13.7371 15.4375 13.4986 15.4375 13.25V12.625Z" fill="black"/>
<path d="M6.21878 13.25V12.625C6.21878 12.2106 6.05416 11.8132 5.76113 11.5201C5.46811 11.2271 5.07068 11.0625 4.65628 11.0625C4.24188 11.0625 3.84445 11.2271 3.55143 11.5201C3.2584 11.8132 3.09378 12.2106 3.09378 12.625V13.25C3.09378 13.6644 3.2584 14.0618 3.55143 14.3549C3.84445 14.6479 4.24188 14.8125 4.65628 14.8125C5.07068 14.8125 5.46811 14.6479 5.76113 14.3549C6.05416 14.0618 6.21878 13.6644 6.21878 13.25ZM3.71878 13.25V12.625C3.71878 12.3764 3.81756 12.1379 3.99337 11.9621C4.16919 11.7863 4.40764 11.6875 4.65628 11.6875C4.90492 11.6875 5.14338 11.7863 5.31919 11.9621C5.49501 12.1379 5.59378 12.3764 5.59378 12.625V13.25C5.59378 13.4986 5.49501 13.7371 5.31919 13.9129C5.14338 14.0887 4.90492 14.1875 4.65628 14.1875C4.40764 14.1875 4.16919 14.0887 3.99337 13.9129C3.81756 13.7371 3.71878 13.4986 3.71878 13.25Z" fill="black"/>
<path d="M7.94836 9.72728V9.56668C8.16399 9.5205 8.35495 9.39627 8.48456 9.21787C8.57187 9.08897 8.6189 8.93703 8.61966 8.78135C8.62042 8.62567 8.57488 8.47328 8.48883 8.34354C8.29489 8.04195 7.95874 7.95177 7.68881 7.87937C7.42346 7.80818 7.29452 7.76355 7.2605 7.66345C7.23364 7.5838 7.35251 7.51552 7.39615 7.49805C7.48157 7.46753 7.57278 7.45664 7.66298 7.46619C7.75319 7.47574 7.8401 7.50548 7.91724 7.5532C7.95228 7.57479 7.99124 7.58923 8.03188 7.59572C8.07252 7.6022 8.11404 7.60059 8.15406 7.59099C8.19407 7.58138 8.2318 7.56396 8.26507 7.53973C8.29833 7.51551 8.32649 7.48494 8.34791 7.44981C8.36933 7.41467 8.3836 7.37564 8.3899 7.33497C8.3962 7.2943 8.3944 7.25279 8.38461 7.21282C8.37482 7.17284 8.35723 7.1352 8.33286 7.10204C8.30848 7.06889 8.27779 7.04087 8.24255 7.01961C8.17806 6.98111 8.11018 6.94861 8.03976 6.9225V6.77272C8.03976 6.68984 8.00684 6.61035 7.94823 6.55174C7.88963 6.49314 7.81014 6.46022 7.72726 6.46022C7.64438 6.46022 7.56489 6.49314 7.50629 6.55174C7.44768 6.61035 7.41476 6.68984 7.41476 6.77272V6.85125C7.32845 6.86361 7.24389 6.88609 7.16284 6.91822C6.74811 7.08515 6.54013 7.48249 6.66846 7.86396C6.81433 8.29181 7.22616 8.40236 7.52676 8.483C7.71856 8.53443 7.89969 8.58303 7.96317 8.6816C7.98179 8.70762 7.99245 8.7385 7.99383 8.77047C7.99521 8.80244 7.98726 8.83412 7.97095 8.86165C7.89343 8.9735 7.6731 9.00043 7.4964 8.96923C7.4286 8.9558 7.3648 8.92696 7.30994 8.88492C7.27716 8.86023 7.23983 8.84225 7.2001 8.83198C7.16036 8.82172 7.119 8.81939 7.07836 8.82511C7.03772 8.83083 6.99861 8.84451 6.96326 8.86535C6.92791 8.88619 6.897 8.91378 6.87232 8.94657C6.84763 8.97935 6.82964 9.01667 6.81938 9.05641C6.80912 9.09614 6.80678 9.13751 6.81251 9.17815C6.81823 9.21878 6.8319 9.25789 6.85274 9.29325C6.87358 9.3286 6.90118 9.3595 6.93396 9.38419C7.05001 9.47139 7.18245 9.53429 7.32337 9.56913V9.72728C7.32337 9.81016 7.35629 9.88965 7.41489 9.94825C7.4735 10.0069 7.55299 10.0398 7.63587 10.0398C7.71875 10.0398 7.79823 10.0069 7.85684 9.94825C7.91544 9.88965 7.94836 9.81016 7.94836 9.72728Z" fill="black"/>
<path d="M19.2513 7.41061C18.9859 7.33943 18.857 7.2948 18.823 7.1947C18.7961 7.11505 18.915 7.04677 18.9586 7.0293C19.0441 6.9988 19.1353 6.98792 19.2255 6.99747C19.3157 7.00701 19.4026 7.03674 19.4797 7.08445C19.5148 7.10604 19.5537 7.12048 19.5944 7.12697C19.635 7.13345 19.6765 7.13184 19.7165 7.12224C19.7565 7.11263 19.7943 7.09521 19.8275 7.07098C19.8608 7.04675 19.889 7.01619 19.9104 6.98105C19.9318 6.94592 19.9461 6.90689 19.9524 6.86622C19.9587 6.82555 19.9569 6.78404 19.9471 6.74407C19.9373 6.70409 19.9197 6.66645 19.8953 6.63329C19.871 6.60014 19.8403 6.57212 19.805 6.55086C19.7405 6.51237 19.6727 6.47987 19.6022 6.45377V6.30397C19.6022 6.22109 19.5693 6.14161 19.5107 6.083C19.4521 6.0244 19.3726 5.99147 19.2897 5.99147C19.2069 5.99147 19.1274 6.0244 19.0688 6.083C19.0102 6.14161 18.9772 6.22109 18.9772 6.30397V6.38257C18.8909 6.39492 18.8064 6.41737 18.7253 6.44947C18.3106 6.6164 18.1026 7.01374 18.2309 7.3952C18.3768 7.82306 18.7886 7.93361 19.0892 8.01425C19.281 8.06567 19.4622 8.11427 19.5256 8.21285C19.5443 8.23887 19.5549 8.26975 19.5563 8.30172C19.5577 8.33369 19.5497 8.36537 19.5334 8.3929C19.4559 8.50475 19.2354 8.5316 19.0589 8.50047C18.9911 8.48705 18.9273 8.45821 18.8724 8.41617C18.8396 8.39148 18.8023 8.3735 18.7626 8.36323C18.7228 8.35297 18.6815 8.35063 18.6408 8.35636C18.6002 8.36208 18.5611 8.37575 18.5257 8.39659C18.4904 8.41743 18.4595 8.44503 18.4348 8.47782C18.4101 8.5106 18.3921 8.54792 18.3819 8.58766C18.3716 8.62739 18.3693 8.66876 18.375 8.70939C18.3807 8.75003 18.3944 8.78914 18.4152 8.8245C18.4361 8.85985 18.4637 8.89075 18.4964 8.91544C18.6125 9.00264 18.7449 9.06554 18.8858 9.10038V9.25853C18.8858 9.34141 18.9188 9.4209 18.9774 9.4795C19.036 9.53811 19.1155 9.57103 19.1983 9.57103C19.2812 9.57103 19.3607 9.53811 19.4193 9.4795C19.4779 9.4209 19.5108 9.34141 19.5108 9.25853V9.09793C19.7265 9.05175 19.9174 8.92752 20.047 8.74912C20.1344 8.62022 20.1814 8.46828 20.1821 8.3126C20.1829 8.15692 20.1374 8.00453 20.0513 7.87479C19.8574 7.5732 19.5212 7.48302 19.2513 7.41061Z" fill="black"/>
<path d="M22 7.78125C22.0002 7.23828 21.8432 6.70685 21.548 6.25114C21.2528 5.79542 20.832 5.4349 20.3364 5.2131C19.8408 4.9913 19.2916 4.9177 18.7551 5.00119C18.2185 5.08467 17.7177 5.32168 17.3129 5.68359C16.9081 6.0455 16.6167 6.51684 16.474 7.04071C16.3312 7.56458 16.3431 8.11857 16.5083 8.63582C16.6735 9.15306 16.9848 9.61143 17.4048 9.95559C17.8248 10.2998 18.3354 10.515 18.875 10.5753V11.7852C18.7113 11.877 18.5728 12.0079 18.4722 12.1663C18.3715 12.3248 18.3117 12.5057 18.2982 12.6929C18.2976 12.6999 18.2972 12.7069 18.297 12.7138L18.2262 15.4683L15.2854 15.4375C14.8667 15.4414 14.4666 15.6112 14.1729 15.9097C13.8792 16.2081 13.7159 16.6109 13.7188 17.0296V19.8125H7.00003V17.6267L7.52462 17.5199C7.72576 17.4747 7.9071 17.3662 8.04198 17.2103C8.17687 17.0544 8.25819 16.8593 8.27398 16.6538L8.45266 12.8482C8.46892 12.6979 8.45537 12.5458 8.41277 12.4007C8.37017 12.2556 8.29936 12.1204 8.2044 12.0027C8.13013 11.9139 8.03954 11.8402 7.93753 11.7856V11.0441C8.6519 10.9642 9.30859 10.6138 9.77271 10.0649C10.2368 9.51601 10.4732 8.81021 10.4332 8.0925C10.3932 7.37478 10.0799 6.69962 9.55764 6.20567C9.0354 5.71173 8.34386 5.43649 7.62503 5.43649C6.9062 5.43649 6.21465 5.71173 5.69241 6.20567C5.17017 6.69962 4.85689 7.37478 4.81689 8.0925C4.77689 8.81021 5.01322 9.51601 5.47734 10.0649C5.94147 10.6138 6.59815 10.9642 7.31253 11.0441V11.7228C7.10845 11.7945 6.93004 11.9247 6.79964 12.0973C6.66925 12.2698 6.59267 12.477 6.5795 12.6929C6.57888 12.6999 6.57843 12.7069 6.57827 12.7138L6.50748 15.4683L3.56665 15.4375C3.14794 15.4414 2.74787 15.6112 2.45419 15.9097C2.1605 16.2081 1.99717 16.6109 2.00004 17.0296V20.1021C2.00004 20.106 2.00105 20.1097 2.00119 20.1136C2.00105 20.1174 2.00004 20.1211 2.00004 20.125V21.6875C2.00004 21.7704 2.03297 21.8499 2.09157 21.9085C2.15017 21.9671 2.22966 22 2.31254 22H21.6875C21.7704 22 21.8499 21.9671 21.9085 21.9085C21.9671 21.8499 22 21.7704 22 21.6875V20.125C22 20.0421 21.9671 19.9626 21.9085 19.904C21.8499 19.8454 21.7704 19.8125 21.6875 19.8125H18.7188V17.6267L19.2434 17.5199C19.4445 17.4747 19.6258 17.3662 19.7607 17.2103C19.8956 17.0544 19.9769 16.8593 19.9927 16.6538L20.1714 12.8482C20.1877 12.6979 20.1741 12.5458 20.1315 12.4007C20.0889 12.2556 20.0181 12.1204 19.9231 12.0027C19.8127 11.8695 19.6656 11.7717 19.5 11.7216V10.5753C20.1871 10.4978 20.8216 10.1701 21.2826 9.65486C21.7437 9.13958 21.999 8.47268 22 7.78125ZM5.43753 8.25C5.43753 7.81735 5.56582 7.39442 5.80619 7.03469C6.04655 6.67496 6.3882 6.39458 6.78791 6.22901C7.18762 6.06345 7.62745 6.02013 8.05179 6.10453C8.47612 6.18894 8.86589 6.39728 9.17182 6.7032C9.47775 7.00913 9.68609 7.39891 9.77049 7.82324C9.8549 8.24757 9.81158 8.68741 9.64601 9.08712C9.48044 9.48683 9.20007 9.82847 8.84033 10.0688C8.4806 10.3092 8.05767 10.4375 7.62503 10.4375C7.04507 10.4368 6.48905 10.2062 6.07895 9.79608C5.66886 9.38598 5.43818 8.82996 5.43753 8.25ZM2.62504 17.0296C2.62181 16.7771 2.71873 16.5336 2.89459 16.3523C3.07046 16.1711 3.31095 16.0669 3.56345 16.0625L6.80868 16.0965C6.84949 16.0976 6.89011 16.0906 6.92817 16.0759C6.96623 16.0611 7.00097 16.0389 7.03035 16.0106C7.05973 15.9822 7.08317 15.9483 7.09929 15.9108C7.11541 15.8733 7.12389 15.8329 7.12423 15.7921L7.20267 12.7414C7.22892 12.4993 7.39646 12.2986 7.56308 12.3131C7.59508 12.3169 7.626 12.327 7.65405 12.3429C7.68211 12.3587 7.70673 12.38 7.7265 12.4054C7.81183 12.5199 7.84876 12.6633 7.82935 12.8047L7.65036 16.6138C7.64463 16.6834 7.61695 16.7495 7.57129 16.8024C7.52563 16.8553 7.46435 16.8923 7.39629 16.9081L6.62512 17.0652C6.55451 17.0795 6.49104 17.1179 6.44546 17.1737C6.39988 17.2295 6.375 17.2993 6.37503 17.3714V19.8125H3.823V18.7188C3.823 18.6359 3.79008 18.5564 3.73147 18.4978C3.67287 18.4392 3.59338 18.4063 3.5105 18.4063C3.42762 18.4063 3.34814 18.4392 3.28953 18.4978C3.23093 18.5564 3.198 18.6359 3.198 18.7188V19.8125H2.62504V17.0296ZM21.375 20.4375V21.375H2.62504V20.4375H21.375ZM19.5481 12.8047L19.3691 16.6138C19.3634 16.6834 19.3357 16.7495 19.29 16.8024C19.2444 16.8553 19.1831 16.8923 19.115 16.9081L18.3438 17.0652C18.2732 17.0795 18.2098 17.1179 18.1642 17.1737C18.1186 17.2295 18.0937 17.2993 18.0938 17.3714V19.8125H15.5417V18.7188C15.5417 18.6359 15.5088 18.5564 15.4502 18.4978C15.3916 18.4392 15.3121 18.4063 15.2292 18.4063C15.1464 18.4063 15.0669 18.4392 15.0083 18.4978C14.9497 18.5564 14.9167 18.6359 14.9167 18.7188V19.8125H14.3438V17.0296C14.3405 16.7771 14.4375 16.5336 14.6133 16.3523C14.7892 16.1711 15.0297 16.0669 15.2822 16.0625L18.5274 16.0965H18.5306C18.6121 16.0965 18.6903 16.0647 18.7487 16.0078C18.807 15.951 18.8409 15.8736 18.843 15.7921L18.9214 12.7414C18.9476 12.4993 19.1129 12.2986 19.2818 12.3131C19.3138 12.3169 19.3447 12.327 19.3728 12.3429C19.4008 12.3587 19.4255 12.38 19.4452 12.4054C19.5306 12.5199 19.5675 12.6633 19.5481 12.8047ZM19.1875 9.96875C18.7549 9.96875 18.3319 9.84046 17.9722 9.60009C17.6125 9.35972 17.3321 9.01808 17.1665 8.61837C17.001 8.21866 16.9576 7.77882 17.042 7.35449C17.1264 6.93016 17.3348 6.54038 17.6407 6.23445C17.9466 5.92853 18.3364 5.72019 18.7607 5.63578C19.1851 5.55138 19.6249 5.5947 20.0246 5.76026C20.4243 5.92583 20.766 6.20621 21.0063 6.56594C21.2467 6.92567 21.375 7.3486 21.375 7.78125C21.3743 8.36121 21.1437 8.91723 20.7336 9.32733C20.3235 9.73742 19.7675 9.9681 19.1875 9.96875Z" fill="black"/>
<path d="M13.7188 2C13 1.99987 12.3084 2.27499 11.7862 2.76885C11.2639 3.26271 10.9506 3.93781 10.9106 4.65548C10.8706 5.37314 11.107 6.07888 11.5711 6.62772C12.0352 7.17656 12.6919 7.52683 13.4063 7.60658V8.66025C13.2425 8.75195 13.104 8.8829 13.0033 9.04134C12.9027 9.19978 12.8429 9.38074 12.8295 9.56798C12.8289 9.57492 12.8284 9.58186 12.8283 9.58888L12.7575 12.3433L9.81664 12.3125C9.55465 12.3123 9.29696 12.3791 9.06804 12.5065C9.08393 12.6326 9.08684 12.7601 9.07675 12.8868C9.06935 13.0441 9.06237 13.1926 9.05555 13.3372C9.14055 13.2147 9.25378 13.1144 9.38569 13.0448C9.5176 12.9752 9.66431 12.9384 9.81344 12.9375L13.0587 12.9715C13.0995 12.9727 13.1402 12.9657 13.1782 12.951C13.2163 12.9363 13.2511 12.9141 13.2805 12.8857C13.3099 12.8574 13.3333 12.8234 13.3494 12.7859C13.3655 12.7483 13.3739 12.708 13.3742 12.6671L13.4527 9.6165C13.4791 9.37434 13.6457 9.17285 13.8131 9.18811C13.8451 9.19191 13.876 9.20203 13.904 9.21787C13.9321 9.23372 13.9567 9.25498 13.9765 9.28042C14.0618 9.39484 14.0987 9.5382 14.0793 9.6796L13.9003 13.4888C13.8946 13.5584 13.8669 13.6245 13.8213 13.6774C13.7756 13.7303 13.7143 13.7673 13.6463 13.7831L12.8751 13.9402C12.8045 13.9545 12.741 13.9929 12.6954 14.0487C12.6499 14.1045 12.625 14.1743 12.625 14.2464V17.7812H10.073V16.2188C10.073 16.1359 10.0401 16.0564 9.98146 15.9978C9.92286 15.9392 9.84337 15.9062 9.76049 15.9062C9.67761 15.9062 9.59813 15.9392 9.53952 15.9978C9.48092 16.0564 9.44799 16.1359 9.44799 16.2188V17.7812H8.87502V16.8692C8.81803 17.1758 8.67212 17.4589 8.45545 17.6832C8.23878 17.9076 7.96092 18.0632 7.65646 18.1308L7.62503 18.1372V18.4062H13.0938V17.0296C13.094 16.7498 13.147 16.4725 13.25 16.2123V14.5017L13.7746 14.3949C13.9992 14.3448 14.1978 14.2147 14.3333 14.0288C14.2374 13.7803 14.188 13.5163 14.1875 13.25V12.625C14.1877 12.1517 14.3423 11.6915 14.6279 11.3141L14.7027 9.72316C14.7189 9.57283 14.7053 9.42077 14.6627 9.27568C14.6201 9.1306 14.5493 8.99535 14.4544 8.87767C14.344 8.74443 14.1969 8.64668 14.0313 8.59662V7.60658C14.7456 7.52683 15.4023 7.17656 15.8664 6.62772C16.3306 6.07888 16.5669 5.37314 16.5269 4.65548C16.4869 3.93781 16.1736 3.26271 15.6513 2.76885C15.1291 2.27499 14.4375 1.99987 13.7188 2ZM13.7188 7C13.2861 7 12.8632 6.87171 12.5035 6.63134C12.1437 6.39097 11.8633 6.04933 11.6978 5.64962C11.5322 5.24991 11.4889 4.81007 11.5733 4.38574C11.6577 3.96141 11.866 3.57163 12.172 3.2657C12.4779 2.95978 12.8677 2.75144 13.292 2.66703C13.7163 2.58263 14.1562 2.62595 14.5559 2.79151C14.9556 2.95708 15.2972 3.23746 15.5376 3.59719C15.778 3.95692 15.9063 4.37985 15.9063 4.8125C15.9056 5.39246 15.6749 5.94848 15.2648 6.35858C14.8547 6.76867 14.2987 6.99935 13.7188 7Z" stroke="black" stroke-width="0.2"/>
<path d="M13.7825 4.44186C13.5172 4.37068 13.3883 4.32605 13.3542 4.22595C13.3274 4.1463 13.4462 4.07802 13.4899 4.06055C13.5753 4.03003 13.6665 4.01913 13.7567 4.02868C13.8469 4.03823 13.9338 4.06797 14.011 4.1157C14.046 4.13729 14.085 4.15173 14.1256 4.15822C14.1663 4.1647 14.2078 4.16309 14.2478 4.15349C14.2878 4.14388 14.3255 4.12646 14.3588 4.10223C14.3921 4.078 14.4202 4.04744 14.4416 4.0123C14.4631 3.97717 14.4773 3.93814 14.4836 3.89747C14.4899 3.8568 14.4881 3.81529 14.4783 3.77532C14.4686 3.73534 14.451 3.6977 14.4266 3.66454C14.4022 3.63139 14.3715 3.60337 14.3363 3.58211C14.2718 3.54362 14.2039 3.51112 14.1335 3.48502V3.33522C14.1335 3.25234 14.1006 3.17285 14.042 3.11425C13.9834 3.05564 13.9039 3.02272 13.821 3.02272C13.7381 3.02272 13.6586 3.05564 13.6 3.11425C13.5414 3.17285 13.5085 3.25234 13.5085 3.33522V3.41381C13.4222 3.42617 13.3376 3.44862 13.2566 3.48071C12.8418 3.64765 12.6339 4.04498 12.7622 4.42645C12.9081 4.85431 13.3199 4.96486 13.6205 5.0455C13.8123 5.09692 13.9934 5.14552 14.0569 5.2441C14.0755 5.27012 14.0862 5.30099 14.0876 5.33296C14.089 5.36494 14.081 5.39662 14.0647 5.42415C13.9872 5.53615 13.7665 5.56277 13.5901 5.53172C13.5223 5.5183 13.4585 5.48946 13.4037 5.44742C13.3375 5.39756 13.2542 5.37605 13.1721 5.38761C13.09 5.39917 13.0159 5.44286 12.9661 5.50906C12.9162 5.57527 12.8947 5.65857 12.9062 5.74064C12.9178 5.82271 12.9615 5.89683 13.0277 5.94669C13.1437 6.03389 13.2762 6.09679 13.4171 6.13163V6.28978C13.4171 6.37266 13.45 6.45215 13.5086 6.51075C13.5672 6.56936 13.6467 6.60228 13.7296 6.60228C13.8125 6.60228 13.892 6.56936 13.9506 6.51075C14.0092 6.45215 14.0421 6.37266 14.0421 6.28978V6.12918C14.2577 6.083 14.4487 5.95877 14.5783 5.78037C14.6656 5.65147 14.7126 5.49953 14.7134 5.34385C14.7142 5.18817 14.6686 5.03578 14.5826 4.90604C14.3886 4.60445 14.0525 4.51427 13.7825 4.44186Z" stroke="black" stroke-width="0.2"/>
<path d="M10.9063 11.0625C10.7471 11.0623 10.5906 11.0216 10.4515 10.9441C10.3125 10.8667 10.1954 10.7551 10.1115 10.6199C9.96651 10.772 9.80799 10.9106 9.63791 11.034C9.83021 11.3031 10.1031 11.5043 10.4171 11.6083C10.7312 11.7123 11.0701 11.7139 11.3851 11.6128C11.7001 11.5116 11.9748 11.313 12.1696 11.0456C12.3644 10.7782 12.4691 10.4558 12.4688 10.125V9.5C12.4682 9.11041 12.3223 8.73504 12.0596 8.44737C11.7968 8.15971 11.4362 7.98045 11.0482 7.94469C11.0571 8.04537 11.0625 8.14703 11.0625 8.25C11.0625 8.35937 11.0568 8.46741 11.0468 8.5742C11.2683 8.60791 11.4704 8.71978 11.6166 8.8896C11.7628 9.05941 11.8434 9.27593 11.8438 9.5V10.125C11.8435 10.3736 11.7446 10.6119 11.5689 10.7876C11.3931 10.9634 11.1548 11.0622 10.9063 11.0625Z" stroke="black" stroke-width="0.2"/>
<path d="M14.8125 12.625V13.25C14.8125 13.6644 14.9771 14.0618 15.2702 14.3549C15.5632 14.6479 15.9606 14.8125 16.375 14.8125C16.7894 14.8125 17.1868 14.6479 17.4799 14.3549C17.7729 14.0618 17.9375 13.6644 17.9375 13.25V12.625C17.9375 12.2106 17.7729 11.8132 17.4799 11.5201C17.1868 11.2271 16.7894 11.0625 16.375 11.0625C15.9606 11.0625 15.5632 11.2271 15.2702 11.5201C14.9771 11.8132 14.8125 12.2106 14.8125 12.625ZM15.4375 12.625C15.4375 12.3764 15.5363 12.1379 15.7121 11.9621C15.8879 11.7863 16.1264 11.6875 16.375 11.6875C16.6236 11.6875 16.8621 11.7863 17.0379 11.9621C17.2137 12.1379 17.3125 12.3764 17.3125 12.625V13.25C17.3125 13.4986 17.2137 13.7371 17.0379 13.9129C16.8621 14.0887 16.6236 14.1875 16.375 14.1875C16.1264 14.1875 15.8879 14.0887 15.7121 13.9129C15.5363 13.7371 15.4375 13.4986 15.4375 13.25V12.625Z" stroke="black" stroke-width="0.2"/>
<path d="M6.21878 13.25V12.625C6.21878 12.2106 6.05416 11.8132 5.76113 11.5201C5.46811 11.2271 5.07068 11.0625 4.65628 11.0625C4.24188 11.0625 3.84445 11.2271 3.55143 11.5201C3.2584 11.8132 3.09378 12.2106 3.09378 12.625V13.25C3.09378 13.6644 3.2584 14.0618 3.55143 14.3549C3.84445 14.6479 4.24188 14.8125 4.65628 14.8125C5.07068 14.8125 5.46811 14.6479 5.76113 14.3549C6.05416 14.0618 6.21878 13.6644 6.21878 13.25ZM3.71878 13.25V12.625C3.71878 12.3764 3.81756 12.1379 3.99337 11.9621C4.16919 11.7863 4.40764 11.6875 4.65628 11.6875C4.90492 11.6875 5.14338 11.7863 5.31919 11.9621C5.49501 12.1379 5.59378 12.3764 5.59378 12.625V13.25C5.59378 13.4986 5.49501 13.7371 5.31919 13.9129C5.14338 14.0887 4.90492 14.1875 4.65628 14.1875C4.40764 14.1875 4.16919 14.0887 3.99337 13.9129C3.81756 13.7371 3.71878 13.4986 3.71878 13.25Z" stroke="black" stroke-width="0.2"/>
<path d="M7.94836 9.72728V9.56668C8.16399 9.5205 8.35495 9.39627 8.48456 9.21787C8.57187 9.08897 8.6189 8.93703 8.61966 8.78135C8.62042 8.62567 8.57488 8.47328 8.48883 8.34354C8.29489 8.04195 7.95874 7.95177 7.68881 7.87937C7.42346 7.80818 7.29452 7.76355 7.2605 7.66345C7.23364 7.5838 7.35251 7.51552 7.39615 7.49805C7.48157 7.46753 7.57278 7.45664 7.66298 7.46619C7.75319 7.47574 7.8401 7.50548 7.91724 7.5532C7.95228 7.57479 7.99124 7.58923 8.03188 7.59572C8.07252 7.6022 8.11404 7.60059 8.15406 7.59099C8.19407 7.58138 8.2318 7.56396 8.26507 7.53973C8.29833 7.51551 8.32649 7.48494 8.34791 7.44981C8.36933 7.41467 8.3836 7.37564 8.3899 7.33497C8.3962 7.2943 8.3944 7.25279 8.38461 7.21282C8.37482 7.17284 8.35723 7.1352 8.33286 7.10204C8.30848 7.06889 8.27779 7.04087 8.24255 7.01961C8.17806 6.98111 8.11018 6.94861 8.03976 6.9225V6.77272C8.03976 6.68984 8.00684 6.61035 7.94823 6.55174C7.88963 6.49314 7.81014 6.46022 7.72726 6.46022C7.64438 6.46022 7.56489 6.49314 7.50629 6.55174C7.44768 6.61035 7.41476 6.68984 7.41476 6.77272V6.85125C7.32845 6.86361 7.24389 6.88609 7.16284 6.91822C6.74811 7.08515 6.54013 7.48249 6.66846 7.86396C6.81433 8.29181 7.22616 8.40236 7.52676 8.483C7.71856 8.53443 7.89969 8.58303 7.96317 8.6816C7.98179 8.70762 7.99245 8.7385 7.99383 8.77047C7.99521 8.80244 7.98726 8.83412 7.97095 8.86165C7.89343 8.9735 7.6731 9.00043 7.4964 8.96923C7.4286 8.9558 7.3648 8.92696 7.30994 8.88492C7.27716 8.86023 7.23983 8.84225 7.2001 8.83198C7.16036 8.82172 7.119 8.81939 7.07836 8.82511C7.03772 8.83083 6.99861 8.84451 6.96326 8.86535C6.92791 8.88619 6.897 8.91378 6.87232 8.94657C6.84763 8.97935 6.82964 9.01667 6.81938 9.05641C6.80912 9.09614 6.80678 9.13751 6.81251 9.17815C6.81823 9.21878 6.8319 9.25789 6.85274 9.29325C6.87358 9.3286 6.90118 9.3595 6.93396 9.38419C7.05001 9.47139 7.18245 9.53429 7.32337 9.56913V9.72728C7.32337 9.81016 7.35629 9.88965 7.41489 9.94825C7.4735 10.0069 7.55299 10.0398 7.63587 10.0398C7.71875 10.0398 7.79823 10.0069 7.85684 9.94825C7.91544 9.88965 7.94836 9.81016 7.94836 9.72728Z" stroke="black" stroke-width="0.2"/>
<path d="M19.2513 7.41061C18.9859 7.33943 18.857 7.2948 18.823 7.1947C18.7961 7.11505 18.915 7.04677 18.9586 7.0293C19.0441 6.9988 19.1353 6.98792 19.2255 6.99747C19.3157 7.00701 19.4026 7.03674 19.4797 7.08445C19.5148 7.10604 19.5537 7.12048 19.5944 7.12697C19.635 7.13345 19.6765 7.13184 19.7165 7.12224C19.7565 7.11263 19.7943 7.09521 19.8275 7.07098C19.8608 7.04675 19.889 7.01619 19.9104 6.98105C19.9318 6.94592 19.9461 6.90689 19.9524 6.86622C19.9587 6.82555 19.9569 6.78404 19.9471 6.74407C19.9373 6.70409 19.9197 6.66645 19.8953 6.63329C19.871 6.60014 19.8403 6.57212 19.805 6.55086C19.7405 6.51237 19.6727 6.47987 19.6022 6.45377V6.30397C19.6022 6.22109 19.5693 6.14161 19.5107 6.083C19.4521 6.0244 19.3726 5.99147 19.2897 5.99147C19.2069 5.99147 19.1274 6.0244 19.0688 6.083C19.0102 6.14161 18.9772 6.22109 18.9772 6.30397V6.38257C18.8909 6.39492 18.8064 6.41737 18.7253 6.44947C18.3106 6.6164 18.1026 7.01374 18.2309 7.3952C18.3768 7.82306 18.7886 7.93361 19.0892 8.01425C19.281 8.06567 19.4622 8.11427 19.5256 8.21285C19.5443 8.23887 19.5549 8.26975 19.5563 8.30172C19.5577 8.33369 19.5497 8.36537 19.5334 8.3929C19.4559 8.50475 19.2354 8.5316 19.0589 8.50047C18.9911 8.48705 18.9273 8.45821 18.8724 8.41617C18.8396 8.39148 18.8023 8.3735 18.7626 8.36323C18.7228 8.35297 18.6815 8.35063 18.6408 8.35636C18.6002 8.36208 18.5611 8.37575 18.5257 8.39659C18.4904 8.41743 18.4595 8.44503 18.4348 8.47782C18.4101 8.5106 18.3921 8.54792 18.3819 8.58766C18.3716 8.62739 18.3693 8.66876 18.375 8.70939C18.3807 8.75003 18.3944 8.78914 18.4152 8.8245C18.4361 8.85985 18.4637 8.89075 18.4964 8.91544C18.6125 9.00264 18.7449 9.06554 18.8858 9.10038V9.25853C18.8858 9.34141 18.9188 9.4209 18.9774 9.4795C19.036 9.53811 19.1155 9.57103 19.1983 9.57103C19.2812 9.57103 19.3607 9.53811 19.4193 9.4795C19.4779 9.4209 19.5108 9.34141 19.5108 9.25853V9.09793C19.7265 9.05175 19.9174 8.92752 20.047 8.74912C20.1344 8.62022 20.1814 8.46828 20.1821 8.3126C20.1829 8.15692 20.1374 8.00453 20.0513 7.87479C19.8574 7.5732 19.5212 7.48302 19.2513 7.41061Z" stroke="black" stroke-width="0.2"/>
<path d="M22 7.78125C22.0002 7.23828 21.8432 6.70685 21.548 6.25114C21.2528 5.79542 20.832 5.4349 20.3364 5.2131C19.8408 4.9913 19.2916 4.9177 18.7551 5.00119C18.2185 5.08467 17.7177 5.32168 17.3129 5.68359C16.9081 6.0455 16.6167 6.51684 16.474 7.04071C16.3312 7.56458 16.3431 8.11857 16.5083 8.63582C16.6735 9.15306 16.9848 9.61143 17.4048 9.95559C17.8248 10.2998 18.3354 10.515 18.875 10.5753V11.7852C18.7113 11.877 18.5728 12.0079 18.4722 12.1663C18.3715 12.3248 18.3117 12.5057 18.2982 12.6929C18.2976 12.6999 18.2972 12.7069 18.297 12.7138L18.2262 15.4683L15.2854 15.4375C14.8667 15.4414 14.4666 15.6112 14.1729 15.9097C13.8792 16.2081 13.7159 16.6109 13.7188 17.0296V19.8125H7.00003V17.6267L7.52462 17.5199C7.72576 17.4747 7.9071 17.3662 8.04198 17.2103C8.17687 17.0544 8.25819 16.8593 8.27398 16.6538L8.45266 12.8482C8.46892 12.6979 8.45537 12.5458 8.41277 12.4007C8.37017 12.2556 8.29936 12.1204 8.2044 12.0027C8.13013 11.9139 8.03954 11.8402 7.93753 11.7856V11.0441C8.6519 10.9642 9.30859 10.6138 9.77271 10.0649C10.2368 9.51601 10.4732 8.81021 10.4332 8.0925C10.3932 7.37478 10.0799 6.69962 9.55764 6.20567C9.0354 5.71173 8.34386 5.43649 7.62503 5.43649C6.9062 5.43649 6.21465 5.71173 5.69241 6.20567C5.17017 6.69962 4.85689 7.37478 4.81689 8.0925C4.77689 8.81021 5.01322 9.51601 5.47734 10.0649C5.94147 10.6138 6.59815 10.9642 7.31253 11.0441V11.7228C7.10845 11.7945 6.93004 11.9247 6.79964 12.0973C6.66925 12.2698 6.59267 12.477 6.5795 12.6929C6.57888 12.6999 6.57843 12.7069 6.57827 12.7138L6.50748 15.4683L3.56665 15.4375C3.14794 15.4414 2.74787 15.6112 2.45419 15.9097C2.1605 16.2081 1.99717 16.6109 2.00004 17.0296V20.1021C2.00004 20.106 2.00105 20.1097 2.00119 20.1136C2.00105 20.1174 2.00004 20.1211 2.00004 20.125V21.6875C2.00004 21.7704 2.03297 21.8499 2.09157 21.9085C2.15017 21.9671 2.22966 22 2.31254 22H21.6875C21.7704 22 21.8499 21.9671 21.9085 21.9085C21.9671 21.8499 22 21.7704 22 21.6875V20.125C22 20.0421 21.9671 19.9626 21.9085 19.904C21.8499 19.8454 21.7704 19.8125 21.6875 19.8125H18.7188V17.6267L19.2434 17.5199C19.4445 17.4747 19.6258 17.3662 19.7607 17.2103C19.8956 17.0544 19.9769 16.8593 19.9927 16.6538L20.1714 12.8482C20.1877 12.6979 20.1741 12.5458 20.1315 12.4007C20.0889 12.2556 20.0181 12.1204 19.9231 12.0027C19.8127 11.8695 19.6656 11.7717 19.5 11.7216V10.5753C20.1871 10.4978 20.8216 10.1701 21.2826 9.65486C21.7437 9.13958 21.999 8.47268 22 7.78125ZM5.43753 8.25C5.43753 7.81735 5.56582 7.39442 5.80619 7.03469C6.04655 6.67496 6.3882 6.39458 6.78791 6.22901C7.18762 6.06345 7.62745 6.02013 8.05179 6.10453C8.47612 6.18894 8.86589 6.39728 9.17182 6.7032C9.47775 7.00913 9.68609 7.39891 9.77049 7.82324C9.8549 8.24757 9.81158 8.68741 9.64601 9.08712C9.48044 9.48683 9.20007 9.82847 8.84033 10.0688C8.4806 10.3092 8.05767 10.4375 7.62503 10.4375C7.04507 10.4368 6.48905 10.2062 6.07895 9.79608C5.66886 9.38598 5.43818 8.82996 5.43753 8.25ZM2.62504 17.0296C2.62181 16.7771 2.71873 16.5336 2.89459 16.3523C3.07046 16.1711 3.31095 16.0669 3.56345 16.0625L6.80868 16.0965C6.84949 16.0976 6.89011 16.0906 6.92817 16.0759C6.96623 16.0611 7.00097 16.0389 7.03035 16.0106C7.05973 15.9822 7.08317 15.9483 7.09929 15.9108C7.11541 15.8733 7.12389 15.8329 7.12423 15.7921L7.20267 12.7414C7.22892 12.4993 7.39646 12.2986 7.56308 12.3131C7.59508 12.3169 7.626 12.327 7.65405 12.3429C7.68211 12.3587 7.70673 12.38 7.7265 12.4054C7.81183 12.5199 7.84876 12.6633 7.82935 12.8047L7.65036 16.6138C7.64463 16.6834 7.61695 16.7495 7.57129 16.8024C7.52563 16.8553 7.46435 16.8923 7.39629 16.9081L6.62512 17.0652C6.55451 17.0795 6.49104 17.1179 6.44546 17.1737C6.39988 17.2295 6.375 17.2993 6.37503 17.3714V19.8125H3.823V18.7188C3.823 18.6359 3.79008 18.5564 3.73147 18.4978C3.67287 18.4392 3.59338 18.4063 3.5105 18.4063C3.42762 18.4063 3.34814 18.4392 3.28953 18.4978C3.23093 18.5564 3.198 18.6359 3.198 18.7188V19.8125H2.62504V17.0296ZM21.375 20.4375V21.375H2.62504V20.4375H21.375ZM19.5481 12.8047L19.3691 16.6138C19.3634 16.6834 19.3357 16.7495 19.29 16.8024C19.2444 16.8553 19.1831 16.8923 19.115 16.9081L18.3438 17.0652C18.2732 17.0795 18.2098 17.1179 18.1642 17.1737C18.1186 17.2295 18.0937 17.2993 18.0938 17.3714V19.8125H15.5417V18.7188C15.5417 18.6359 15.5088 18.5564 15.4502 18.4978C15.3916 18.4392 15.3121 18.4063 15.2292 18.4063C15.1464 18.4063 15.0669 18.4392 15.0083 18.4978C14.9497 18.5564 14.9167 18.6359 14.9167 18.7188V19.8125H14.3438V17.0296C14.3405 16.7771 14.4375 16.5336 14.6133 16.3523C14.7892 16.1711 15.0297 16.0669 15.2822 16.0625L18.5274 16.0965H18.5306C18.6121 16.0965 18.6903 16.0647 18.7487 16.0078C18.807 15.951 18.8409 15.8736 18.843 15.7921L18.9214 12.7414C18.9476 12.4993 19.1129 12.2986 19.2818 12.3131C19.3138 12.3169 19.3447 12.327 19.3728 12.3429C19.4008 12.3587 19.4255 12.38 19.4452 12.4054C19.5306 12.5199 19.5675 12.6633 19.5481 12.8047ZM19.1875 9.96875C18.7549 9.96875 18.3319 9.84046 17.9722 9.60009C17.6125 9.35972 17.3321 9.01808 17.1665 8.61837C17.001 8.21866 16.9576 7.77882 17.042 7.35449C17.1264 6.93016 17.3348 6.54038 17.6407 6.23445C17.9466 5.92853 18.3364 5.72019 18.7607 5.63578C19.1851 5.55138 19.6249 5.5947 20.0246 5.76026C20.4243 5.92583 20.766 6.20621 21.0063 6.56594C21.2467 6.92567 21.375 7.3486 21.375 7.78125C21.3743 8.36121 21.1437 8.91723 20.7336 9.32733C20.3235 9.73742 19.7675 9.9681 19.1875 9.96875Z" stroke="black" stroke-width="0.2"/>
</svg>
