<svg width="24" height="24" viewBox="0 0 24 24" fill="none" xmlns="http://www.w3.org/2000/svg">
<path d="M13.3887 19.625C13.2349 19.8902 13.0141 20.1103 12.7484 20.2633C12.4828 20.4164 12.1816 20.4969 11.875 20.4969C11.5684 20.4969 11.2672 20.4164 11.0015 20.2633C10.7359 20.1103 10.5151 19.8902 10.3612 19.625M15.5873 4.53769C14.6027 3.55312 13.2674 3 11.875 3C10.4826 3 9.14726 3.55312 8.16269 4.53769C7.17812 5.52226 6.625 6.85761 6.625 8.25C6.625 14.375 4 16.125 4 16.125H19.75C19.75 16.125 17.125 14.375 17.125 8.25C17.125 6.85761 16.5719 5.52226 15.5873 4.53769Z" stroke="black" stroke-width="2" stroke-linecap="round" stroke-linejoin="round"/>
</svg>
